<?xml version="1.0" encoding="utf-8"?>
<!-- Generator: Adobe Illustrator 25.2.1, SVG Export Plug-In . SVG Version: 6.00 Build 0)  -->
<svg version="1.1" xmlns="http://www.w3.org/2000/svg" xmlns:xlink="http://www.w3.org/1999/xlink" x="0px" y="0px"
	 viewBox="0 0 100 100" style="enable-background:new 0 0 100 100;" xml:space="preserve">
<style type="text/css">
	.st0{fill:#929497;}
	.st1{fill:#2196F3;}
	.st2{fill:#E53935;}
	.st3{fill:none;stroke:#FFFFFF;stroke-width:11;stroke-miterlimit:10;}
	.st4{fill:#FFFFFF;}
	.st5{fill:none;stroke:#000000;stroke-width:3;stroke-miterlimit:10;}
	.st6{fill:#2196F3;stroke:#1769AA;stroke-width:5;stroke-linejoin:round;stroke-miterlimit:10;}
	.st7{fill:#FFC107;stroke:#B28704;stroke-width:5;stroke-linejoin:round;stroke-miterlimit:10;}
	.st8{fill:#3F51B5;stroke:#2C387E;stroke-width:5;stroke-linejoin:round;stroke-miterlimit:10;}
	.st9{fill:#009688;stroke:#00695F;stroke-width:5;stroke-linejoin:round;stroke-miterlimit:10;}
	.st10{fill:#E53935;stroke:#A02725;stroke-width:5;stroke-linejoin:round;stroke-miterlimit:10;}
	.st11{fill:#E53935;stroke:#A02725;stroke-width:4;stroke-linejoin:round;stroke-miterlimit:10;}
	.st12{fill:#3F51B5;stroke:#2C387E;stroke-miterlimit:10;}
	.st13{fill:#009688;stroke:#00695F;stroke-miterlimit:10;}
	.st14{fill:none;stroke:#000000;stroke-miterlimit:10;}
	.st15{fill:#E53935;stroke:#A02725;stroke-miterlimit:10;}
	.st16{fill:#606060;}
	.st17{fill:#2196F3;stroke:#1769AA;stroke-miterlimit:10;}
	.st18{fill:#FFC107;stroke:#B28704;stroke-miterlimit:10;}
	.st19{fill:#3F51B5;}
	.st20{fill:#2C387E;}
	.st21{fill:#009688;}
	.st22{fill:#00695F;}
	.st23{fill:none;}
	.st24{fill:#A02725;}
	.st25{fill:#1769AA;}
	.st26{fill:#FFC107;}
	.st27{fill:#B28704;}
</style>
<g id="Layer_1">
</g>
<g id="Layer_2">
	<g>
		<ellipse class="st0" cx="50" cy="97.6905" rx="7.3903" ry="2.3095"/>
		<path class="st2" d="M51.0172,64.9349c6.2482-4.9033,22.3085-27.8679,22.3085-39.2998C73.3256,12.7733,62.8618,2.3095,50,2.3095
			S26.6744,12.7733,26.6744,25.6351c0,11.4319,16.0603,34.3964,22.3085,39.2998c0.4745,0.3721,0.5828,1.0467,0.2485,1.5485
			c-0.705,1.0587-1.3446,2.593-1.7668,3.7245h5.0709c-0.4222-1.1315-1.0618-2.6658-1.7668-3.7245
			C50.4344,65.9816,50.5426,65.307,51.0172,64.9349z"/>
		<path class="st23" d="M51.0172,64.9349c6.2482-4.9033,22.3085-27.8679,22.3085-39.2998C73.3256,12.7733,62.8618,2.3095,50,2.3095
			S26.6744,12.7733,26.6744,25.6351c0,11.4319,16.0603,34.3964,22.3085,39.2998c0.4745,0.3721,0.5828,1.0467,0.2485,1.5485
			c-0.705,1.0587-1.3446,2.593-1.7668,3.7245h5.0709c-0.4222-1.1315-1.0618-2.6658-1.7668-3.7245
			C50.4344,65.9816,50.5426,65.307,51.0172,64.9349z"/>
		<path d="M48.8592,80.3107c1.4975,2.0571,2.9121,3.9998,0.3063,10.2374l-0.1782,0.426l2.1308,0.8902l0.1782-0.426
			c3.107-7.4359,1.0686-10.2361-0.5697-12.4867c-1.2427-1.7072-2.0893-2.8833-0.0348-6.4343h-2.6085
			C46.1447,76.5794,47.522,78.4737,48.8592,80.3107z"/>
		<path class="st24" d="M53.2251,66.0916c6.8481-6.1363,22.41-28.4326,22.41-40.4565C75.6351,11.4998,64.1351,0,50,0
			S24.3649,11.4998,24.3649,25.6351c0,12.0239,15.5618,34.3202,22.41,40.4565c-1.157,2.1069-1.9951,4.8005-2.0352,4.9304
			c-0.1083,0.3503-0.0438,0.7312,0.1741,1.0262c0.2179,0.295,0.5625,0.4691,0.9292,0.4691h2.2404h2.6085h3.4652
			c0.3667,0,0.7113-0.1741,0.9292-0.4691c0.2179-0.295,0.2824-0.6759,0.1741-1.0262
			C55.2202,70.8921,54.3821,68.1986,53.2251,66.0916z M50.7686,66.4834c0.705,1.0587,1.3446,2.593,1.7668,3.7245h-5.0709
			c0.4222-1.1315,1.0618-2.6658,1.7668-3.7245c0.3342-0.5018,0.226-1.1764-0.2485-1.5485
			c-6.2482-4.9033-22.3085-27.8679-22.3085-39.2998C26.6744,12.7733,37.1382,2.3095,50,2.3095s23.3256,10.4639,23.3256,23.3256
			c0,11.4319-16.0603,34.3964-22.3085,39.2998C50.5426,65.307,50.4344,65.9816,50.7686,66.4834z"/>
		<path class="st4" d="M55.5427,7.6212c0.8579-0.308,1.8514-0.2691,2.753-0.072c0.9126,0.1995,1.7783,0.551,2.5909,0.9783
			c1.6203,0.8692,3.0409,2.0434,4.2428,3.4005c1.1988,1.3596,2.1927,2.9132,2.8598,4.6206
			c0.3257,0.8561,0.5696,1.7508,0.6756,2.6669c0.0994,0.9134,0.0805,1.8543-0.1892,2.7243
			c-0.6546-1.6761-1.498-3.0442-2.4188-4.3841c-0.9274-1.3276-1.9411-2.5804-3.0033-3.793
			c-1.0667-1.2087-2.1911-2.3676-3.3931-3.4429c-0.601-0.5387-1.2245-1.0511-1.8896-1.5214
			C57.1023,8.3204,56.4013,7.9192,55.5427,7.6212z"/>
	</g>
</g>
</svg>
