<?xml version="1.0" encoding="utf-8"?>
<!-- Generator: Adobe Illustrator 25.2.1, SVG Export Plug-In . SVG Version: 6.00 Build 0)  -->
<svg version="1.1" xmlns="http://www.w3.org/2000/svg" xmlns:xlink="http://www.w3.org/1999/xlink" x="0px" y="0px"
	 viewBox="0 0 100 100" style="enable-background:new 0 0 100 100;" xml:space="preserve">
<style type="text/css">
	.st0{fill:#929497;}
	.st1{fill:#2196F3;}
	.st2{fill:#E53935;}
	.st3{fill:none;stroke:#FFFFFF;stroke-width:11;stroke-miterlimit:10;}
	.st4{fill:#FFFFFF;}
	.st5{fill:none;stroke:#000000;stroke-width:3;stroke-miterlimit:10;}
	.st6{fill:#2196F3;stroke:#1769AA;stroke-width:5;stroke-linejoin:round;stroke-miterlimit:10;}
	.st7{fill:#FFC107;stroke:#B28704;stroke-width:5;stroke-linejoin:round;stroke-miterlimit:10;}
	.st8{fill:#3F51B5;stroke:#2C387E;stroke-width:5;stroke-linejoin:round;stroke-miterlimit:10;}
	.st9{fill:#009688;stroke:#00695F;stroke-width:5;stroke-linejoin:round;stroke-miterlimit:10;}
	.st10{fill:#E53935;stroke:#A02725;stroke-width:5;stroke-linejoin:round;stroke-miterlimit:10;}
	.st11{fill:#E53935;stroke:#A02725;stroke-width:4;stroke-linejoin:round;stroke-miterlimit:10;}
	.st12{fill:#3F51B5;stroke:#2C387E;stroke-miterlimit:10;}
	.st13{fill:#009688;stroke:#00695F;stroke-miterlimit:10;}
	.st14{fill:none;stroke:#000000;stroke-miterlimit:10;}
	.st15{fill:#E53935;stroke:#A02725;stroke-miterlimit:10;}
	.st16{fill:#606060;}
	.st17{fill:#2196F3;stroke:#1769AA;stroke-miterlimit:10;}
	.st18{fill:#FFC107;stroke:#B28704;stroke-miterlimit:10;}
	.st19{fill:#3F51B5;}
	.st20{fill:#2C387E;}
	.st21{fill:#009688;}
	.st22{fill:#00695F;}
	.st23{fill:none;}
	.st24{fill:#A02725;}
	.st25{fill:#1769AA;}
	.st26{fill:#FFC107;}
	.st27{fill:#B28704;}
</style>
<g id="Layer_1">
</g>
<g id="Layer_2">
	<g>
		<ellipse class="st0" cx="50" cy="97.6905" rx="7.3903" ry="2.3095"/>
		<path class="st21" d="M50,25.4042c-12.8618,0-23.3256,10.4639-23.3256,23.3256c0,5.5136,3.7989,14.4876,10.4228,24.6216
			C43.4252,83.0322,48.7235,88.3383,50,88.6766c1.2765-0.3383,6.5748-5.6444,12.9028-15.3253
			c6.6239-10.1339,10.4228-19.1079,10.4228-24.6216C73.3256,35.868,62.8618,25.4042,50,25.4042z"/>
		<path class="st22" d="M50,23.0947c-14.1351,0-25.6351,11.4998-25.6351,25.6351c0,8.5719,7.7241,21.2196,11.0449,26.2596
			C39.0571,80.5247,46.8006,90.9931,50,90.9931s10.9429-10.4684,14.5902-16.0037c3.3208-5.04,11.0449-17.6877,11.0449-26.2596
			C75.6351,34.5944,64.1351,23.0947,50,23.0947z M50,88.6766c-1.2765-0.3383-6.5748-5.6444-12.9028-15.3253
			c-6.6239-10.1339-10.4228-19.1079-10.4228-24.6216c0-12.8618,10.4639-23.3256,23.3256-23.3256S73.3256,35.868,73.3256,48.7298
			c0,5.5136-3.7989,14.4876-10.4228,24.6216C56.5748,83.0322,51.2765,88.3383,50,88.6766z"/>
		<path class="st4" d="M49.9292,34.968c0.0444,0.2609,0.8938,5.2463,0.8938,7.1505c0,2.9035-1.5433,4.9742-3.8251,5.807
			l0.7162,13.2184c0.0389,0.7606-0.5663,1.4046-1.3324,1.4046h-3.553c-0.7606,0-1.3712-0.6384-1.3324-1.4046l0.7162-13.2184
			c-2.2873-0.8327-3.8251-2.909-3.8251-5.807c0-1.9098,0.8494-6.8895,0.8938-7.1505c0.1777-1.127,2.5149-1.1436,2.6592,0.0611
			v7.8389c0.0722,0.1888,0.8383,0.1777,0.8883,0c0.0777-1.4046,0.4386-7.7278,0.4441-7.8722c0.1832-1.1547,2.4816-1.1547,2.6592,0
			c0.0111,0.1499,0.3664,6.4676,0.4441,7.8722c0.05,0.1777,0.8216,0.1888,0.8883,0v-7.8389
			C47.4087,33.8299,49.7515,33.841,49.9292,34.968z M56.5467,50.8289l-0.8327,10.276c-0.0666,0.7772,0.5496,1.4434,1.3268,1.4434
			h3.1089c0.7384,0,1.3324-0.594,1.3324-1.3324V35.4565c0-0.7328-0.594-1.3324-1.3324-1.3324
			C55.5696,34.1241,47.8584,44.0338,56.5467,50.8289L56.5467,50.8289z"/>
	</g>
</g>
</svg>
