<?xml version="1.0" encoding="utf-8"?>
<!-- Generator: Adobe Illustrator 25.2.1, SVG Export Plug-In . SVG Version: 6.00 Build 0)  -->
<svg version="1.1" xmlns="http://www.w3.org/2000/svg" xmlns:xlink="http://www.w3.org/1999/xlink" x="0px" y="0px"
	 viewBox="0 0 100 100" style="enable-background:new 0 0 100 100;" xml:space="preserve">
<style type="text/css">
	.st0{fill:#929497;}
	.st1{fill:#2196F3;}
	.st2{fill:#E53935;}
	.st3{fill:none;stroke:#FFFFFF;stroke-width:11;stroke-miterlimit:10;}
	.st4{fill:#FFFFFF;}
	.st5{fill:none;stroke:#000000;stroke-width:3;stroke-miterlimit:10;}
	.st6{fill:#2196F3;stroke:#1769AA;stroke-width:5;stroke-linejoin:round;stroke-miterlimit:10;}
	.st7{fill:#FFC107;stroke:#B28704;stroke-width:5;stroke-linejoin:round;stroke-miterlimit:10;}
	.st8{fill:#3F51B5;stroke:#2C387E;stroke-width:5;stroke-linejoin:round;stroke-miterlimit:10;}
	.st9{fill:#009688;stroke:#00695F;stroke-width:5;stroke-linejoin:round;stroke-miterlimit:10;}
	.st10{fill:#E53935;stroke:#A02725;stroke-width:5;stroke-linejoin:round;stroke-miterlimit:10;}
	.st11{fill:#E53935;stroke:#A02725;stroke-width:4;stroke-linejoin:round;stroke-miterlimit:10;}
	.st12{fill:#3F51B5;stroke:#2C387E;stroke-miterlimit:10;}
	.st13{fill:#009688;stroke:#00695F;stroke-miterlimit:10;}
	.st14{fill:none;stroke:#000000;stroke-miterlimit:10;}
	.st15{fill:#E53935;stroke:#A02725;stroke-miterlimit:10;}
	.st16{fill:#606060;}
	.st17{fill:#2196F3;stroke:#1769AA;stroke-miterlimit:10;}
	.st18{fill:#FFC107;stroke:#B28704;stroke-miterlimit:10;}
	.st19{fill:#3F51B5;}
	.st20{fill:#2C387E;}
	.st21{fill:#009688;}
	.st22{fill:#00695F;}
	.st23{fill:none;}
	.st24{fill:#A02725;}
	.st25{fill:#1769AA;}
	.st26{fill:#FFC107;}
	.st27{fill:#B28704;}
</style>
<g id="Layer_1">
</g>
<g id="Layer_2">
	<g>
		<ellipse class="st0" cx="50" cy="97.6905" rx="7.3903" ry="2.3095"/>
		<path class="st1" d="M50,25.4042c-12.8618,0-23.3256,10.4639-23.3256,23.3256c0,5.5136,3.7989,14.4876,10.4228,24.6216
			C43.4252,83.0322,48.7237,88.3383,50,88.6766c1.2763-0.3383,6.5748-5.6444,12.9028-15.3253
			c6.6239-10.1339,10.4228-19.1079,10.4228-24.6216C73.3256,35.868,62.8618,25.4042,50,25.4042z"/>
		<path class="st25" d="M50,23.0947c-14.1353,0-25.6351,11.4998-25.6351,25.6351c0,8.5719,7.7241,21.2196,11.0451,26.2596
			C39.0573,80.5247,46.8003,90.9931,50,90.9931s10.9427-10.4684,14.59-16.0037c3.321-5.04,11.0451-17.6877,11.0451-26.2596
			C75.6351,34.5944,64.1353,23.0947,50,23.0947z M50,88.6766c-1.2763-0.3383-6.5748-5.6444-12.9028-15.3253
			c-6.6239-10.1339-10.4228-19.1079-10.4228-24.6216c0-12.8618,10.4639-23.3256,23.3256-23.3256S73.3256,35.868,73.3256,48.7298
			c0,5.5136-3.7989,14.4876-10.4228,24.6216C56.5748,83.0322,51.2763,88.3383,50,88.6766z"/>
		<path class="st4" d="M49.385,40.8016l-10.3484,8.5231v9.1989c0,0.496,0.4021,0.8981,0.8981,0.8981l6.2898-0.0163
			c0.4942-0.0025,0.8936-0.4038,0.8936-0.8981v-5.3721c0-0.496,0.4021-0.8981,0.8981-0.8981h3.5922
			c0.496,0,0.8981,0.4021,0.8981,0.8981v5.3681c-0.0015,0.496,0.3993,0.8993,0.8952,0.9009c0.0009,0,0.0019,0,0.0028,0
			l6.2875,0.0174c0.496,0,0.8981-0.4021,0.8981-0.8981v-9.2051l-10.3462-8.5169C49.9931,40.5996,49.6356,40.5996,49.385,40.8016
			L49.385,40.8016z M65.7313,46.5946l-4.6923-3.8678v-7.7744c0-0.372-0.3016-0.6735-0.6735-0.6735h-3.1432
			c-0.372,0-0.6735,0.3016-0.6735,0.6735v4.0755l-5.0252-4.1344c-0.9946-0.8184-2.4293-0.8184-3.4238,0L33.8918,46.5946
			c-0.2867,0.237-0.327,0.6615-0.0901,0.9483c0.0001,0.0001,0.0002,0.0002,0.0003,0.0003l1.4313,1.74
			c0.2363,0.2873,0.6607,0.3287,0.948,0.0924c0.0004-0.0003,0.0007-0.0006,0.0011-0.0009L49.385,38.5003
			c0.2506-0.202,0.6082-0.202,0.8588,0l13.2031,10.8743c0.2866,0.2372,0.7112,0.1971,0.9483-0.0895
			c0.0001-0.0001,0.0002-0.0002,0.0003-0.0003l1.4313-1.74c0.2362-0.2874,0.1947-0.7118-0.0927-0.948
			C65.7331,46.5961,65.7322,46.5954,65.7313,46.5946L65.7313,46.5946z"/>
	</g>
</g>
</svg>
