<?xml version="1.0" encoding="utf-8"?>
<!-- Generator: Adobe Illustrator 25.2.1, SVG Export Plug-In . SVG Version: 6.00 Build 0)  -->
<svg version="1.1" xmlns="http://www.w3.org/2000/svg" xmlns:xlink="http://www.w3.org/1999/xlink" x="0px" y="0px"
	 viewBox="0 0 100 100" style="enable-background:new 0 0 100 100;" xml:space="preserve">
<style type="text/css">
	.st0{fill:#929497;}
	.st1{fill:#2196F3;}
	.st2{fill:#E53935;}
	.st3{fill:none;stroke:#FFFFFF;stroke-width:11;stroke-miterlimit:10;}
	.st4{fill:#FFFFFF;}
	.st5{fill:none;stroke:#000000;stroke-width:3;stroke-miterlimit:10;}
	.st6{fill:#2196F3;stroke:#1769AA;stroke-width:5;stroke-linejoin:round;stroke-miterlimit:10;}
	.st7{fill:#FFC107;stroke:#B28704;stroke-width:5;stroke-linejoin:round;stroke-miterlimit:10;}
	.st8{fill:#3F51B5;stroke:#2C387E;stroke-width:5;stroke-linejoin:round;stroke-miterlimit:10;}
	.st9{fill:#009688;stroke:#00695F;stroke-width:5;stroke-linejoin:round;stroke-miterlimit:10;}
	.st10{fill:#E53935;stroke:#A02725;stroke-width:5;stroke-linejoin:round;stroke-miterlimit:10;}
	.st11{fill:#E53935;stroke:#A02725;stroke-width:4;stroke-linejoin:round;stroke-miterlimit:10;}
	.st12{fill:#3F51B5;stroke:#2C387E;stroke-miterlimit:10;}
	.st13{fill:#009688;stroke:#00695F;stroke-miterlimit:10;}
	.st14{fill:none;stroke:#000000;stroke-miterlimit:10;}
	.st15{fill:#E53935;stroke:#A02725;stroke-miterlimit:10;}
	.st16{fill:#606060;}
	.st17{fill:#2196F3;stroke:#1769AA;stroke-miterlimit:10;}
	.st18{fill:#FFC107;stroke:#B28704;stroke-miterlimit:10;}
	.st19{fill:#3F51B5;}
	.st20{fill:#2C387E;}
	.st21{fill:#009688;}
	.st22{fill:#00695F;}
	.st23{fill:none;}
	.st24{fill:#A02725;}
	.st25{fill:#1769AA;}
	.st26{fill:#FFC107;}
	.st27{fill:#B28704;}
</style>
<g id="Layer_1">
</g>
<g id="Layer_2">
	<g>
		<ellipse class="st0" cx="50" cy="97.6905" rx="7.3903" ry="2.3095"/>
		<path class="st19" d="M50,25.4042c-12.8618,0-23.3256,10.4639-23.3256,23.3256c0,5.5136,3.7989,14.4876,10.4228,24.6216
			C43.4252,83.0322,48.7237,88.3383,50,88.6766c1.2763-0.3383,6.5748-5.6444,12.9028-15.3253
			c6.6239-10.1339,10.4228-19.1079,10.4228-24.6216C73.3256,35.868,62.8618,25.4042,50,25.4042z"/>
		<path class="st20" d="M50,23.0947c-14.1353,0-25.6351,11.4998-25.6351,25.6351c0,8.5719,7.7241,21.2196,11.0451,26.2596
			C39.0573,80.5247,46.8003,90.9931,50,90.9931s10.9429-10.4684,14.5902-16.0037c3.3208-5.04,11.0449-17.6877,11.0449-26.2596
			C75.6351,34.5944,64.1351,23.0947,50,23.0947z M50,88.6766c-1.2763-0.3383-6.5748-5.6444-12.9028-15.3253
			c-6.6239-10.1339-10.4228-19.1079-10.4228-24.6216c0-12.8618,10.4639-23.3256,23.3256-23.3256S73.3256,35.868,73.3256,48.7298
			c0,5.5136-3.7989,14.4876-10.4228,24.6216C56.5748,83.0322,51.2763,88.3383,50,88.6766z"/>
		<path class="st4" d="M42.7252,49.7219c2.2284,0,4.0416-1.8131,4.0416-4.0416c0-2.2284-1.8131-4.0416-4.0416-4.0416
			s-4.0416,1.8131-4.0416,4.0416C38.6836,47.9088,40.4968,49.7219,42.7252,49.7219z M60.5081,43.2554H49.1917
			c-0.4466,0-0.8083,0.3617-0.8083,0.8083v7.2748H37.067V40.8305c0-0.4466-0.3617-0.8083-0.8083-0.8083H34.642
			c-0.4466,0-0.8083,0.3617-0.8083,0.8083v17.7829c0,0.4466,0.3617,0.8083,0.8083,0.8083h1.6166
			c0.4466,0,0.8083-0.3617,0.8083-0.8083v-2.4249H62.933v2.4249c0,0.4466,0.3617,0.8083,0.8083,0.8083h1.6166
			c0.4466,0,0.8083-0.3617,0.8083-0.8083v-9.6998C66.1663,45.7884,63.6332,43.2554,60.5081,43.2554z"/>
	</g>
</g>
</svg>
